<svg width="360" height="121" viewBox="0 0 360 121" fill="none" xmlns="http://www.w3.org/2000/svg">
<g clip-path="url(#clip0_2866_4626)">
<path d="M154.258 104.051V91.6879H182.563V97.7447C183.631 97.4957 184.699 97.2466 185.767 96.9896C189.438 96.114 193.092 95.2304 196.715 94.3387V91.6879L194.948 86.3781L196.715 81.0683V68.6815L193.173 66.9143H140.098V105.842H145.551C148.435 105.255 151.334 104.661 154.25 104.051H154.258ZM154.258 77.5338H182.563V81.0764H154.258V77.5338Z" fill="white"/>
<path d="M202.199 95.9219V105.843H216.351V92.2749C211.685 93.5039 206.962 94.7169 202.199 95.9138V95.9219Z" fill="white"/>
<path d="M216.351 89.3181V66.9143H202.199V92.9731C206.962 91.7762 211.685 90.5552 216.351 89.3262V89.3181Z" fill="white"/>
<path d="M235.992 83.9439V77.5336H257.695C264.859 75.3246 271.791 73.0994 278.449 70.8663V68.6894L274.907 66.9221H221.832V87.864C226.619 86.5707 231.334 85.2693 235.984 83.9519L235.992 83.9439Z" fill="white"/>
<path d="M264.295 78.474V105.842H278.447V73.8792C273.853 75.4134 269.13 76.9477 264.295 78.474Z" fill="white"/>
<path d="M221.84 90.8208V105.842H235.992V86.9167C231.342 88.2341 226.619 89.5355 221.84 90.8208Z" fill="white"/>
<path d="M283.934 72.023V104.074L287.476 105.842H337.009L340.551 104.074V81.0761H305.17V91.6957H326.399V95.2382H298.094V77.5416H326.399L329.941 79.3089H340.559V66.9221H298.311C293.7 68.6251 288.905 70.3281 283.95 72.0311L283.934 72.023Z" fill="white"/>
<path d="M222.063 34.4456C221.886 33.5139 221.758 32.5662 221.678 31.6104C219.003 32.1324 216.312 32.6625 213.605 33.2087L214.176 36.0119C216.818 35.4737 219.453 34.9516 222.071 34.4456H222.063Z" fill="white"/>
<path d="M359.851 26.966C358.205 20.0417 343.113 17.2944 314.969 18.7805C304.399 19.3428 292.247 20.5076 278.946 22.2105C279.171 23.1343 279.347 24.0742 279.484 25.0221C292.64 23.3352 304.656 22.1864 315.113 21.6322C352.245 19.6641 356.615 25.7209 357.064 27.6247C358.759 34.758 333.892 47.442 310.061 56.9369C277.596 69.8779 233.501 83.2287 185.895 94.531C138.29 105.833 92.9016 113.738 58.0911 116.782C32.5334 119.015 4.62242 118.863 2.92768 111.729C2.56624 110.219 3.25699 105.833 17.345 97.6237L15.9073 95.1495C4.18066 101.994 -0.97585 107.633 0.156655 112.396C1.51405 118.124 11.9235 121.008 31.168 120.999C38.8305 120.999 47.8905 120.542 58.3401 119.634C93.2871 116.581 138.828 108.653 186.562 97.3184C234.296 85.9839 278.528 72.585 311.122 59.5958C345.354 45.9559 361.747 34.9749 359.843 26.966H359.851Z" fill="white"/>
<path d="M250.672 58.2227C234.624 58.2227 221.564 45.1611 221.564 29.1113C221.564 13.0615 234.624 0 250.672 0C266.72 0 279.78 13.0615 279.78 29.1113C279.78 45.1611 266.72 58.2227 250.672 58.2227ZM250.672 1.60659C235.508 1.60659 223.171 13.9452 223.171 29.1113C223.171 44.2775 235.508 56.6161 250.672 56.6161C265.837 56.6161 278.174 44.2775 278.174 29.1113C278.174 13.9452 265.837 1.60659 250.672 1.60659Z" fill="white"/>
<path d="M239.329 40.8717C238.188 40.8717 237.032 40.719 235.915 40.4138C235.176 40.2049 234.429 39.9157 233.698 39.5543C232.968 39.1848 232.325 38.751 231.803 38.3734C230.727 37.5701 229.787 36.5982 228.903 35.4012C228.253 34.5498 227.691 33.5376 227.185 32.3166L227.008 31.8828L227.474 31.9712C227.875 32.0435 228.261 32.1318 228.654 32.2202L228.614 32.4692L228.67 32.2202C230.542 32.6379 232.47 33.0637 235.835 32.18C237.779 31.6659 239.57 30.5654 241.329 28.7982C242.678 27.4406 243.827 25.8903 244.943 24.3881L247.337 21.199L248.598 19.5924C249.096 19.0221 249.586 18.4839 250.116 17.9537C251.264 16.8371 252.517 15.8812 253.843 15.1101C255.272 14.2746 256.879 13.6722 258.485 13.3589C261.585 12.7484 264.999 13.3589 267.609 14.9896C269.906 16.4355 271.649 18.3795 272.645 20.6046L272.846 21.0625L272.356 20.958C269.85 20.4279 267.77 20.2351 265.971 20.3636C264.115 20.5002 262.573 21.0464 261.368 21.9943C260.381 22.7494 259.473 23.7696 258.445 25.3199C258.212 25.6653 257.987 26.0348 257.77 26.3963L257.039 27.6495C256.365 28.7982 255.698 29.8344 255.015 30.7984C253.329 33.1842 251.553 35.1362 249.578 36.7668C248.301 37.8111 247.056 38.6305 245.754 39.2731C244.244 40.0362 242.582 40.5503 240.967 40.7672C240.429 40.8395 239.875 40.8797 239.321 40.8797L239.329 40.8717ZM227.851 32.5576C228.293 33.5456 228.767 34.373 229.313 35.088C230.164 36.2527 231.08 37.1926 232.108 37.9557C232.614 38.3172 233.233 38.7349 233.931 39.0964C234.63 39.4418 235.353 39.723 236.06 39.9238C237.642 40.3576 239.321 40.47 240.911 40.2612C242.477 40.0523 244.076 39.5543 245.538 38.8152C246.807 38.1887 248.027 37.3854 249.264 36.3732C251.2 34.7666 252.943 32.8468 254.606 30.5012C255.28 29.5452 255.939 28.5331 256.606 27.3924L257.336 26.1393C257.569 25.7617 257.794 25.3842 258.027 25.0307C259.095 23.4322 260.035 22.3718 261.063 21.5846C262.34 20.5805 263.987 19.9941 265.939 19.8495C267.658 19.721 269.633 19.8816 271.963 20.3475C270.983 18.4036 269.392 16.7006 267.336 15.4153C264.83 13.8489 261.561 13.2705 258.581 13.8569C257.023 14.1622 255.473 14.7406 254.092 15.5438C252.798 16.2989 251.586 17.2308 250.461 18.3152C249.939 18.8213 249.457 19.3595 248.975 19.9138L247.73 21.5043L245.345 24.6773C244.212 26.2035 243.048 27.778 241.674 29.1597C239.851 30.9912 237.979 32.1399 235.947 32.6781C232.462 33.5938 230.47 33.152 228.542 32.7263H228.526C228.293 32.67 228.068 32.6218 227.835 32.5737L227.851 32.5576Z" fill="white"/>
<path fill-rule="evenodd" clip-rule="evenodd" d="M237.975 22.3319L238.681 20.1389C238.826 19.6891 239.179 19.3437 239.629 19.2071L241.838 18.5324C242.143 18.436 242.143 18.0102 241.838 17.9138L239.645 17.2069C239.203 17.0623 238.85 16.7089 238.714 16.259L238.039 14.05C237.942 13.7447 237.517 13.7447 237.42 14.05L236.714 16.243C236.569 16.6848 236.216 17.0382 235.766 17.1748L233.557 17.8496C233.252 17.946 233.252 18.3717 233.557 18.4681L235.75 19.175C236.192 19.3196 236.545 19.673 236.681 20.1229L237.356 22.3319C237.453 22.6372 237.878 22.6372 237.975 22.3319Z" fill="white"/>
<path fill-rule="evenodd" clip-rule="evenodd" d="M262 41.5375C262 43.3447 263.47 44.8146 265.277 44.8146C267.084 44.8146 268.554 43.3447 268.554 41.5375C268.554 39.7303 267.084 38.2605 265.277 38.2605C263.47 38.2605 262 39.7303 262 41.5375Z" fill="white"/>
<path fill-rule="evenodd" clip-rule="evenodd" d="M272.367 20.9498C269.87 20.4196 267.781 20.2268 265.982 20.3553C264.127 20.4919 262.585 21.0381 261.38 21.986C260.392 22.7411 259.484 23.7613 258.456 25.3116C258.223 25.6571 257.998 26.0266 257.781 26.3961L257.051 27.6492C256.376 28.7979 255.717 29.8261 255.026 30.7981C253.34 33.1839 251.565 35.1359 249.589 36.7746C248.32 37.8189 247.067 38.6383 245.766 39.2809C244.256 40.044 242.601 40.5581 240.979 40.775C240.44 40.8473 239.886 40.8875 239.332 40.8875C238.192 40.8875 237.035 40.7349 235.918 40.4296C235.18 40.2208 234.433 39.9316 233.702 39.5701C232.971 39.2006 232.328 38.7668 231.806 38.3892C230.73 37.586 229.79 36.614 228.907 35.4171C228.256 34.5656 227.694 33.5534 227.188 32.3324L227.107 32.1316C227.975 34.4531 229.252 36.5176 230.882 38.4053C232.585 40.3252 234.714 42.0764 237.445 43.2251C240.135 44.3979 243.525 44.8236 246.689 44.189C249.862 43.5785 252.649 42.1085 254.898 40.4135C257.155 38.6945 258.978 36.7425 260.52 34.7102C260.946 34.1479 261.171 33.8346 261.476 33.3928L262.328 32.1316C262.922 31.3524 263.46 30.4688 264.038 29.6976C265.187 28.083 266.311 26.4684 267.629 24.9823C268.287 24.2272 268.986 23.5042 269.813 22.8134C270.223 22.476 270.665 22.1467 271.155 21.8414C271.653 21.5201 272.183 21.2711 272.825 21.0703L272.351 20.9658L272.367 20.9498Z" fill="white"/>
<path d="M72.5154 55.4203L68.9733 57.1876H15.9062V18.26H68.9814L72.5235 20.0273V55.4123L72.5154 55.4203ZM58.3631 46.5681V28.8715H30.0585V46.5681H58.3631Z" fill="white"/>
<path d="M134.619 57.1856H81.544L78.002 55.4184V20.0253L81.544 18.2581H134.619V30.6448H124.001L120.459 28.8776H92.1542V32.4201H113.383V43.0396H92.1542V46.5822H120.459L124.001 44.8149H134.619V57.2017V57.1856Z" fill="white"/>
<path d="M196.715 30.6448H186.097L182.555 28.8776H154.25V32.4201H175.478V43.0396H154.25V57.1937H140.098V20.0253L143.64 18.2581H196.715V30.6448Z" fill="white"/>
<path d="M216.351 57.1856H202.199V18.2581H216.351V57.1856Z" fill="white"/>
<path d="M72.5154 104.075L68.9733 105.842H15.9062V93.4551H26.5245L30.0666 95.2223H58.3712V91.6798H19.4483L15.9062 89.9126V68.6815L19.4483 66.9143H72.5235V79.3011H61.9052L58.3631 77.5338H30.0585V81.0764H68.9814L72.5235 82.8436V104.075H72.5154Z" fill="white"/>
<path d="M134.619 89.9206L131.077 91.6879H92.1542V105.842H78.002V66.9143H131.077L134.619 68.6815V89.9126V89.9206ZM120.467 81.0683V77.5258H92.1623V81.0683H120.467Z" fill="white"/>
</g>
<defs>
<clipPath id="clip0_2866_4626">
<rect width="360" height="121" fill="white"/>
</clipPath>
</defs>
</svg>
