<svg width="300" height="18" viewBox="0 0 300 18" fill="none" xmlns="http://www.w3.org/2000/svg">
<path d="M290.974 0C292.76 0 294.303 0.235453 295.602 0.706359C296.901 1.17727 297.891 1.85927 298.573 2.75237C299.272 3.64547 299.621 4.70095 299.621 5.91881H295.163C295.163 5.20433 294.79 4.64411 294.043 4.23816C293.296 3.81597 292.273 3.60487 290.974 3.60487C289.724 3.60487 288.733 3.75913 288.002 4.06766C287.272 4.35995 286.906 4.75778 286.906 5.26116C286.906 5.6184 287.085 5.90257 287.442 6.11367C287.816 6.30852 288.278 6.46279 288.831 6.57645C289.399 6.67388 290.203 6.79567 291.242 6.94181C292.996 7.18539 294.449 7.46143 295.602 7.76996C296.771 8.06225 297.778 8.58999 298.622 9.35318C299.467 10.1001 299.889 11.1556 299.889 12.5196C299.889 13.6563 299.54 14.6387 298.841 15.4668C298.159 16.2788 297.169 16.9039 295.87 17.3424C294.587 17.7808 293.052 18 291.266 18C289.285 18 287.58 17.7402 286.151 17.2206C284.722 16.7009 283.626 15.9621 282.863 15.0041C282.1 14.0298 281.718 12.8769 281.718 11.5453H286.176C286.176 12.4222 286.63 13.1204 287.54 13.6401C288.449 14.1434 289.691 14.3951 291.266 14.3951C292.565 14.3951 293.58 14.2327 294.311 13.908C295.058 13.567 295.431 13.1123 295.431 12.544C295.431 12.138 295.237 11.8214 294.847 11.594C294.457 11.3505 293.97 11.18 293.385 11.0825C292.817 10.9689 291.989 10.8471 290.901 10.7172C289.196 10.5386 287.767 10.3112 286.614 10.0352C285.477 9.75913 284.495 9.24763 283.667 8.50068C282.855 7.73748 282.449 6.65764 282.449 5.26116C282.449 4.17321 282.79 3.23951 283.472 2.46008C284.154 1.66441 285.136 1.05548 286.419 0.633287C287.702 0.211095 289.22 0 290.974 0Z" fill="#DE4050"/>
<path d="M281.724 3.89735H274.636V17.6836H270.154V3.89735H263.042V0.29248H281.724V3.89735Z" fill="#DE4050"/>
<path d="M257.68 11.0584H257.729V0.29248H262.186V17.6836H257.729L248.668 6.91765H248.619V17.6836H244.138V0.29248H248.619L257.68 11.0584Z" fill="#DE4050"/>
<path d="M242.491 10.5225H231.969V14.0787H243.003V17.6836H227.487V0.29248H243.003V3.89735H231.969V6.91765H242.491V10.5225Z" fill="#DE4050"/>
<path d="M217.331 0C219.118 0 220.66 0.235453 221.959 0.706359C223.258 1.17727 224.249 1.85927 224.931 2.75237C225.629 3.64547 225.978 4.70095 225.978 5.91881H221.521C221.521 5.20433 221.147 4.64411 220.4 4.23816C219.653 3.81597 218.63 3.60487 217.331 3.60487C216.081 3.60487 215.091 3.75913 214.36 4.06766C213.629 4.35995 213.264 4.75778 213.264 5.26116C213.264 5.6184 213.442 5.90257 213.8 6.11367C214.173 6.30852 214.636 6.46279 215.188 6.57645C215.756 6.67388 216.56 6.79567 217.599 6.94181C219.353 7.18539 220.806 7.46143 221.959 7.76996C223.128 8.06225 224.135 8.58999 224.98 9.35318C225.824 10.1001 226.246 11.1556 226.246 12.5196C226.246 13.6563 225.897 14.6387 225.199 15.4668C224.517 16.2788 223.526 16.9039 222.227 17.3424C220.944 17.7808 219.41 18 217.624 18C215.643 18 213.938 17.7402 212.509 17.2206C211.08 16.7009 209.984 15.9621 209.22 15.0041C208.457 14.0298 208.076 12.8769 208.076 11.5453H212.533C212.533 12.4222 212.988 13.1204 213.897 13.6401C214.806 14.1434 216.049 14.3951 217.624 14.3951C218.923 14.3951 219.938 14.2327 220.668 13.908C221.415 13.567 221.789 13.1123 221.789 12.544C221.789 12.138 221.594 11.8214 221.204 11.594C220.815 11.3505 220.327 11.18 219.743 11.0825C219.174 10.9689 218.346 10.8471 217.258 10.7172C215.553 10.5386 214.124 10.3112 212.971 10.0352C211.835 9.75913 210.852 9.24763 210.024 8.50068C209.212 7.73748 208.806 6.65764 208.806 5.26116C208.806 4.17321 209.147 3.23951 209.829 2.46008C210.511 1.66441 211.494 1.05548 212.777 0.633287C214.059 0.211095 215.578 0 217.331 0Z" fill="#DE4050"/>
<path d="M207.24 10.5225H196.718V14.0787H207.751V17.6836H192.236V0.29248H207.751V3.89735H196.718V6.91765H207.24V10.5225Z" fill="#DE4050"/>
<path d="M173.278 17.6836V0.29248H183.971C185.335 0.29248 186.536 0.536054 187.576 1.0232C188.615 1.49411 189.419 2.15987 189.987 3.02049C190.571 3.88111 190.864 4.87164 190.864 5.99208C190.864 7.17746 190.555 8.21671 189.938 9.1098C189.321 9.98666 188.461 10.6443 187.356 11.0827L191.18 17.6836H186.553L183.045 11.6186H177.76V17.6836H173.278ZM184.239 8.03808C184.888 8.03808 185.408 7.85135 185.797 7.47787C186.203 7.10439 186.406 6.60913 186.406 5.99208C186.406 5.37503 186.179 4.87164 185.724 4.48193C185.286 4.09221 184.701 3.89735 183.971 3.89735H177.76V8.03808H184.239Z" fill="#DE4050"/>
<path d="M155.034 17.6836V0.29248H165.288C166.701 0.29248 167.943 0.536054 169.015 1.0232C170.086 1.51034 170.915 2.20046 171.499 3.09356C172.084 3.97042 172.376 4.98531 172.376 6.13822C172.376 7.30737 172.092 8.33849 171.524 9.23159C170.955 10.1085 170.151 10.7905 169.112 11.2776C168.089 11.7647 166.904 12.0083 165.556 12.0083H159.515V17.6836H155.034ZM165.556 8.40344C166.27 8.40344 166.839 8.20047 167.261 7.79451C167.699 7.37232 167.919 6.82022 167.919 6.13822C167.919 5.47245 167.675 4.93659 167.188 4.53064C166.717 4.10845 166.084 3.89735 165.288 3.89735H159.515V8.40344H165.556Z" fill="#DE4050"/>
<path d="M150.518 3.89735H143.43V17.6836H138.949V3.89735H131.836V0.29248H150.518V3.89735Z" fill="#DE4050"/>
<path d="M130.458 10.5225H119.935V14.0787H130.969V17.6836H115.454V0.29248H130.969V3.89735H119.935V6.91765H130.458V10.5225Z" fill="#DE4050"/>
<path d="M109.634 11.0584H109.683V0.29248H114.14V17.6836H109.683L100.622 6.91765H100.573V17.6836H96.0913V0.29248H100.573L109.634 11.0584Z" fill="#DE4050"/>
<path d="M80.0931 0.29248V7.5753H80.1418L88.9347 0.29248H95.0484L86.2067 7.64837L94.7318 17.6836H89.2514L82.9916 10.352L80.0931 12.739V17.6836H75.6113V0.29248H80.0931Z" fill="#DE4050"/>
<path d="M56.6533 17.6836V0.29248H67.3461C68.7101 0.29248 69.9118 0.536054 70.951 1.0232C71.9903 1.49411 72.794 2.15987 73.3624 3.02049C73.947 3.88111 74.2393 4.87164 74.2393 5.99208C74.2393 7.17746 73.9307 8.21671 73.3137 9.1098C72.6966 9.98666 71.836 10.6443 70.7318 11.0827L74.5559 17.6836H69.928L66.4206 11.6186H61.1351V17.6836H56.6533ZM67.6141 8.03808C68.2636 8.03808 68.7832 7.85135 69.1729 7.47787C69.5789 7.10439 69.7819 6.60913 69.7819 5.99208C69.7819 5.37503 69.5545 4.87164 69.0999 4.48193C68.6614 4.09221 68.0769 3.89735 67.3461 3.89735H61.1351V8.03808H67.6141Z" fill="#DE4050"/>
<path d="M47.4536 0.0820312L55.5158 17.4731H50.9854L48.9232 12.784C48.9232 12.784 47.7089 12.784 44.9608 14.0094C42.7199 15.0087 39.3913 17.4731 39.3913 17.4731H34.8853L42.9475 0.0820312H47.4536ZM47.4179 9.7393L45.1884 4.95348C43.4384 7.92014 42.931 8.93502 41.4087 12.4871C43.9459 10.668 45.1884 10.2564 47.4179 9.7393Z" fill="#DE4050"/>
<path d="M37.1761 3.89735H30.0882V17.6836H25.6065V3.89735H18.4941V0.29248H37.1761V3.89735Z" fill="#DE4050"/>
<path d="M9.36708 0C11.1533 0 12.6959 0.235453 13.995 0.706359C15.294 1.17727 16.2845 1.85927 16.9665 2.75237C17.6648 3.64547 18.0139 4.70095 18.0139 5.91881H13.5565C13.5565 5.20433 13.183 4.64411 12.4361 4.23816C11.6891 3.81597 10.6661 3.60487 9.36708 3.60487C8.11674 3.60487 7.12621 3.75913 6.3955 4.06766C5.66478 4.35995 5.29942 4.75778 5.29942 5.26116C5.29942 5.6184 5.47804 5.90257 5.83528 6.11367C6.20876 6.30852 6.67155 6.46279 7.22364 6.57645C7.79198 6.67388 8.59577 6.79567 9.63501 6.94181C11.3887 7.18539 12.842 7.46143 13.995 7.76996C15.1641 8.06225 16.1709 8.58999 17.0153 9.35318C17.8596 10.1001 18.2818 11.1556 18.2818 12.5196C18.2818 13.6563 17.9327 14.6387 17.2345 15.4668C16.5525 16.2788 15.5619 16.9039 14.2629 17.3424C12.9801 17.7808 11.4456 18 9.65937 18C7.67831 18 5.9733 17.7402 4.54435 17.2206C3.11539 16.7009 2.01931 15.9621 1.25612 15.0041C0.492924 14.0298 0.111328 12.8769 0.111328 11.5453H4.5687C4.5687 12.4222 5.02337 13.1204 5.93271 13.6401C6.84204 14.1434 8.08426 14.3951 9.65937 14.3951C10.9584 14.3951 11.9733 14.2327 12.704 13.908C13.451 13.567 13.8245 13.1123 13.8245 12.544C13.8245 12.138 13.6296 11.8214 13.2399 11.594C12.8502 11.3505 12.363 11.18 11.7784 11.0825C11.2101 10.9689 10.382 10.8471 9.29401 10.7172C7.589 10.5386 6.16004 10.3112 5.00713 10.0352C3.87046 9.75913 2.88805 9.24763 2.05991 8.50068C1.248 7.73748 0.842045 6.65764 0.842045 5.26116C0.842045 4.17321 1.18305 3.23951 1.86505 2.46008C2.54705 1.66441 3.52946 1.05548 4.81228 0.633287C6.09509 0.211095 7.61336 0 9.36708 0Z" fill="#DE4050"/>
</svg>
